<svg width="16" height="14" viewBox="0 0 16 14" fill="none" xmlns="http://www.w3.org/2000/svg">
<path d="M5.03168 13.3339C11.0694 13.3339 14.3718 8.33171 14.3718 3.99379C14.3718 3.85171 14.3718 3.71027 14.3622 3.56947C15.0047 3.10477 15.5593 2.52939 16 1.87027C15.4009 2.13574 14.7653 2.30984 14.1146 2.38675C14.7998 1.9765 15.3127 1.33124 15.5578 0.571068C14.9134 0.953439 14.2084 1.22292 13.4733 1.36787C12.4557 0.28588 10.8389 0.0210601 9.52931 0.721903C8.21976 1.42275 7.54322 2.91496 7.87904 4.36179C5.23961 4.22947 2.78046 2.98279 1.1136 0.932028C0.242319 2.43196 0.687352 4.35082 2.12992 5.31411C1.60751 5.29862 1.0965 5.1577 0.64 4.90323C0.64 4.91667 0.64 4.93075 0.64 4.94483C0.640428 6.50745 1.74192 7.85333 3.2736 8.16275C2.79032 8.29455 2.28325 8.31382 1.79136 8.21907C2.22141 9.5563 3.45381 10.4724 4.85824 10.4987C3.69583 11.4123 2.25988 11.9082 0.78144 11.9067C0.520258 11.9062 0.259331 11.8904 0 11.8594C1.50121 12.8228 3.24794 13.3338 5.03168 13.3314" fill="black"/>
</svg>
