<svg width="16" height="12" viewBox="0 0 16 12" fill="none" xmlns="http://www.w3.org/2000/svg">
<path d="M8.0265 0.333008C8.03522 0.333021 8.04604 0.33304 8.05887 0.333069L8.30401 0.334094C8.80038 0.336953 9.83926 0.347164 10.9286 0.383631L11.293 0.396785C12.5091 0.444046 13.7201 0.526317 14.2511 0.669527C14.9395 0.854709 15.4816 1.40035 15.6656 2.09325C15.9797 3.27296 15.9988 5.65675 15.9999 5.94136V5.99733C15.9988 6.28193 15.9797 8.66565 15.6656 9.84553C15.4816 10.5383 14.9395 11.084 14.2511 11.2693C13.7201 11.4124 12.5091 11.4947 11.293 11.5419L10.9286 11.5551C9.71822 11.5956 8.57014 11.6037 8.15932 11.6053L8.05887 11.6056C8.04604 11.6057 8.03522 11.6057 8.0265 11.6057H7.97349C7.96477 11.6057 7.95395 11.6057 7.94112 11.6056L7.84066 11.6053C6.97795 11.6019 2.86389 11.5699 1.7489 11.2693C1.06054 11.084 0.518357 10.5383 0.334357 9.84553C0.0303896 8.70371 0.00275626 6.43447 0.000244141 6.03131V5.90737C0.00275626 5.50421 0.0303896 3.23491 0.334357 2.09325C0.518357 1.40035 1.06054 0.854709 1.7489 0.669527C2.8108 0.383106 6.59294 0.340447 7.69598 0.334094L7.94112 0.333069C7.95395 0.33304 7.96477 0.333021 7.97349 0.333008H8.0265ZM6.36363 3.59035V8.34834L10.5454 5.96944L6.36363 3.59035Z" fill="black"/>
</svg>
