<svg width="6" height="10" viewBox="0 0 6 10" fill="none" xmlns="http://www.w3.org/2000/svg">
<path d="M3.15 9.13336L5.45 6.0667C5.53284 5.95624 5.51046 5.79954 5.4 5.7167C5.35673 5.68424 5.30409 5.6667 5.25 5.6667H0.25C0.111929 5.6667 0 5.77863 0 5.9167C0 5.97079 0.0175444 6.02342 0.05 6.0667L2.35 9.13336C2.51569 9.35428 2.82909 9.39905 3.05 9.23336C3.0879 9.20494 3.12157 9.17127 3.15 9.13336ZM3.15 0.200029L5.45 3.2667C5.53284 3.37715 5.51046 3.53385 5.4 3.6167C5.35673 3.64915 5.30409 3.6667 5.25 3.6667H0.25C0.111929 3.6667 0 3.55477 0 3.4167C0 3.3626 0.0175444 3.30997 0.05 3.2667L2.35 0.200029C2.51569 -0.0208845 2.82909 -0.065656 3.05 0.100029C3.0879 0.128457 3.12157 0.162127 3.15 0.200029Z" fill="black"/>
</svg>
