<svg width="100" height="36" viewBox="0 0 100 36" fill="none" xmlns="http://www.w3.org/2000/svg">
<path d="M42.9994 27.4909L44.8006 23.1455L40.5229 12.5894H43.1222L46.0082 20.2964L48.935 12.5894H51.473L45.4146 27.4909H42.9994ZM51.9847 17.9187C51.9847 16.3472 52.4827 15.0252 53.4788 13.9525C54.4749 12.8798 55.7439 12.3434 57.2857 12.3434C58.7458 12.3434 59.909 12.7568 60.7754 13.5835C61.6419 14.4103 62.157 15.3634 62.3207 16.4429H59.8237C59.6736 15.8553 59.37 15.3839 58.9129 15.0286C58.4558 14.6733 57.9066 14.4957 57.2653 14.4957C56.4056 14.4957 55.7166 14.8134 55.1981 15.4488C54.6796 16.0842 54.4203 16.9075 54.4203 17.9187C54.4203 18.9299 54.6796 19.7498 55.1981 20.3784C55.7166 21.0069 56.4056 21.3212 57.2653 21.3212C57.9066 21.3212 58.4558 21.1436 58.9129 20.7883C59.37 20.433 59.6736 19.9616 59.8237 19.374H62.3207C62.157 20.4535 61.6419 21.4066 60.7754 22.2334C59.909 23.0601 58.7458 23.4734 57.2857 23.4734C55.7439 23.4734 54.4749 22.9371 53.4788 21.8644C52.4827 20.7917 51.9847 19.4765 51.9847 17.9187ZM69.075 23.4734C67.4376 23.4734 66.1106 22.9337 65.0941 21.8542C64.0775 20.7746 63.5693 19.4628 63.5693 17.9187C63.5693 16.3746 64.0775 15.0593 65.0941 13.973C66.1106 12.8866 67.4376 12.3434 69.075 12.3434C70.7261 12.3434 72.0598 12.8866 73.0764 13.973C74.093 15.0593 74.6012 16.3746 74.6012 17.9187C74.6012 19.4628 74.093 20.7746 73.0764 21.8542C72.0598 22.9337 70.7261 23.4734 69.075 23.4734ZM66.0049 17.9187C66.0049 18.9299 66.2948 19.7498 66.8748 20.3784C67.4547 21.0069 68.1881 21.3212 69.075 21.3212C69.9756 21.3212 70.7158 21.0069 71.2957 20.3784C71.8756 19.7498 72.1656 18.9299 72.1656 17.9187C72.1656 16.8938 71.8756 16.0671 71.2957 15.4385C70.7158 14.8099 69.9756 14.4957 69.075 14.4957C68.1881 14.4957 67.4547 14.8099 66.8748 15.4385C66.2948 16.0671 66.0049 16.8938 66.0049 17.9187ZM84.4666 13.9832V7.85455H86.9022V23.2275H84.6508V21.7107C83.9276 22.8859 82.7337 23.4734 81.069 23.4734C79.5544 23.4734 78.357 22.9439 77.4769 21.8849C76.5968 20.8259 76.1568 19.5038 76.1568 17.9187C76.1568 16.3336 76.5968 15.0081 77.4769 13.9422C78.357 12.8764 79.5544 12.3434 81.069 12.3434C82.6108 12.3434 83.7434 12.89 84.4666 13.9832ZM84.5689 17.9187C84.5689 16.9212 84.2994 16.1013 83.7604 15.459C83.2214 14.8168 82.4949 14.4957 81.5806 14.4957C80.6801 14.4957 79.9569 14.8168 79.4111 15.459C78.8653 16.1013 78.5924 16.9212 78.5924 17.9187C78.5924 18.8889 78.8653 19.6985 79.4111 20.3476C79.9569 20.9967 80.6801 21.3212 81.5806 21.3212C82.4949 21.3212 83.2214 21.0001 83.7604 20.3579C84.2994 19.7156 84.5689 18.9026 84.5689 17.9187ZM15.483 0V8.68139L7.49477 13.3063L17.2451 18.9465L32.6797 10.0035V18.693L3.60312 35.5413L3.56644 35.5626L3.52621 35.537L0 33.2975V24.837L3.55727 26.8784L9.64249 23.3522L0 17.6465V8.9703L15.483 0ZM94.4547 12.3434C96.0102 12.3434 97.2689 12.8661 98.2309 13.9115C99.1929 14.9568 99.6739 16.2721 99.6739 17.8572L99.6534 18.6156H91.5688C91.6643 19.4628 91.9713 20.1358 92.4898 20.6346C93.0083 21.1333 93.6906 21.3827 94.5366 21.3827C95.096 21.3827 95.6009 21.2461 96.0511 20.9728C96.5014 20.6995 96.8221 20.3305 97.0131 19.8659H99.4692C99.1417 20.9455 98.5311 21.8166 97.6374 22.4793C96.7436 23.1421 95.6896 23.4734 94.4751 23.4734C92.8923 23.4734 91.6131 22.9474 90.6375 21.8952C89.6619 20.843 89.1741 19.5107 89.1741 17.8982C89.1741 16.3267 89.6653 15.0081 90.6477 13.9422C91.6302 12.8764 92.8991 12.3434 94.4547 12.3434ZM94.4547 14.3317C93.6906 14.3317 93.0561 14.5571 92.5512 15.0081C92.0884 15.4214 91.7861 15.9611 91.6444 16.6271L91.6097 16.8118H97.2587C97.1496 16.0603 96.8494 15.459 96.3582 15.0081C95.8669 14.5571 95.2324 14.3317 94.4547 14.3317Z" fill="black"/>
</svg>
